<svg xmlns="http://www.w3.org/2000/svg" width="1200" height="630" viewBox="0 0 1200 630">
  <rect width="1200" height="630" fill="#f6f8fb" />
  <rect
    x="72"
    y="72"
    width="1056"
    height="486"
    rx="28"
    fill="#ffffff"
    stroke="#d9e0e5"
    stroke-width="2"
  />
  <rect x="136" y="136" width="88" height="88" rx="20" fill="#182026" />
  <path d="M166 158h33c6 0 10 4 10 10v47l-26-15-27 15v-47c0-6 4-10 10-10Z" fill="#f2c766" />
  <path
    d="M174 177h25M174 190h17"
    fill="none"
    stroke="#2f6f6d"
    stroke-linecap="round"
    stroke-width="7"
  />
  <circle cx="207" cy="160" r="11" fill="#dce7e6" />
  <text
    x="252"
    y="183"
    fill="#182026"
    font-family="Inter, Arial, sans-serif"
    font-size="58"
    font-weight="700"
  >
    Linkdrop
  </text>
  <text x="252" y="233" fill="#52616b" font-family="Inter, Arial, sans-serif" font-size="30">
    Capture links fast, then organize them when you are ready.
  </text>
  <rect x="136" y="306" width="278" height="150" rx="16" fill="#dce7e6" />
  <rect x="450" y="306" width="278" height="150" rx="16" fill="#f9e5a9" />
  <rect x="764" y="306" width="278" height="150" rx="16" fill="#dfe9ee" />
  <rect x="166" y="336" width="92" height="20" rx="10" fill="#2f6f6d" />
  <rect x="166" y="370" width="198" height="16" rx="8" fill="#52616b" opacity="0.72" />
  <rect x="166" y="402" width="148" height="16" rx="8" fill="#52616b" opacity="0.42" />
  <rect x="480" y="336" width="112" height="20" rx="10" fill="#9b3d4b" />
  <rect x="480" y="370" width="196" height="16" rx="8" fill="#52616b" opacity="0.72" />
  <rect x="480" y="402" width="126" height="16" rx="8" fill="#52616b" opacity="0.42" />
  <rect x="794" y="336" width="102" height="20" rx="10" fill="#8a6b21" />
  <rect x="794" y="370" width="188" height="16" rx="8" fill="#52616b" opacity="0.72" />
  <rect x="794" y="402" width="142" height="16" rx="8" fill="#52616b" opacity="0.42" />
  <text x="136" y="509" fill="#52616b" font-family="Inter, Arial, sans-serif" font-size="24">
    Clean URLs, user-applied tags, notes, and archive snapshots.
  </text>
</svg>
